<svg width="172pt" height="116pt"
 viewBox="0.00 0.00 172.25 116.00" xmlns="http://www.w3.org/2000/svg" xmlns:xlink="http://www.w3.org/1999/xlink">
<g id="graph0" class="graph" transform="scale(1 1) rotate(0) translate(4 112)">
<title>%3</title>
<polygon fill="#ffffff" stroke="transparent" points="-4,4 -4,-112 168.2485,-112 168.2485,4 -4,4"/>
<!-- raymond -->
<g id="node1" class="node">
<title>raymond</title>
<ellipse fill="none" stroke="#000000" cx="41.5426" cy="-90" rx="41.5852" ry="18"/>
<text text-anchor="middle" x="41.5426" y="-85.8" font-family="Times,serif" font-size="14.00" fill="#000000">raymond</text>
</g>
<!-- matthew -->
<g id="node2" class="node">
<title>matthew</title>
<ellipse fill="none" stroke="#000000" cx="86.5426" cy="-18" rx="40.6162" ry="18"/>
<text text-anchor="middle" x="86.5426" y="-13.8" font-family="Times,serif" font-size="14.00" fill="#000000">matthew</text>
</g>
<!-- raymond&#45;&gt;matthew -->
<g id="edge1" class="edge">
<title>raymond&#45;&gt;matthew</title>
<path fill="none" stroke="#000000" d="M52.4358,-72.5708C57.758,-64.0553 64.2733,-53.6308 70.1782,-44.183"/>
<polygon fill="#000000" stroke="#000000" points="73.2616,-45.8532 75.5937,-35.5182 67.3256,-42.1432 73.2616,-45.8532"/>
</g>
<!-- rachel -->
<g id="node3" class="node">
<title>rachel</title>
<ellipse fill="none" stroke="#000000" cx="132.5426" cy="-90" rx="31.9132" ry="18"/>
<text text-anchor="middle" x="132.5426" y="-85.8" font-family="Times,serif" font-size="14.00" fill="#000000">rachel</text>
</g>
<!-- rachel&#45;&gt;matthew -->
<g id="edge2" class="edge">
<title>rachel&#45;&gt;matthew</title>
<path fill="none" stroke="#000000" d="M121.6412,-72.937C116.1084,-64.277 109.2699,-53.5731 103.103,-43.9207"/>
<polygon fill="#000000" stroke="#000000" points="106.0186,-41.9833 97.6852,-35.4407 100.1197,-45.752 106.0186,-41.9833"/>
</g>
</g>
</svg>

